:SAMPLES-PER-SECOND 30
:FULLY-SPECIFIED
:DEGREES
1635
root  58.5197 38.2378 0.309031 -179.966 36.6118 -177.386
RightUpLeg  -16.1982 -5.80571 2.26049
RightLeg  15.4714 5.77955 2.94072
RightFoot  2.34523 0.263236 -2.05499
RightToes  5.82063e-011 0 -3.6325e-017
Spine  2.33157 -3.60991 7.72151
Spine1  9.1131 -4.2108 4.6131
HEad  -22.9951 -19.2191 5.21479
LeftShoulder1  0.308499 2.70592 -32.5504
LeftArm  -3.82402 -0.182978 -42.2141
LeftForeArm  27.4776 -1.86052 -8.80682
LeftHand  -0.0764375 8.62179 -1.08211
RightShoulder  -0.71222 -5.49005 29.1831
RightArm  7.10207 -0.758792 41.0936
RightForeArm  12.6191 10.3663 4.40877
RightHand  0.0440087 1.96784 0.564964
LeftUpLeg  5.594 4.96753 3.63658
LeftLeg  40.8997 -10.0021 -8.80163
LeftFoot  0.836789 1.16893 -10.8656
LeftToes  -1.20963e-009 8.6283e-011 2.04439e-011
1636
root  59.057 38.2046 -0.176971 -179.527 34.5858 -176.672
RightUpLeg  -15.7319 -6.03232 2.75103
RightLeg  17.1111 3.89889 2.5878
RightFoot  0.267926 0.235169 -2.29985
RightToes  5.82063e-011 0 -3.6325e-017
Spine  2.72311 -3.28749 10.1019
Spine1  9.68463 -3.38329 3.62705
HEad  -25.1562 -21.2294 7.69074
LeftShoulder1  0.300543 2.72627 -32.5444
LeftArm  -4.12719 0.840133 -41.1096
LeftForeArm  28.8405 -3.21843 -8.68346
LeftHand  -0.0778053 7.36917 -1.86428
RightShoulder  -0.740544 -5.55488 29.4367
RightArm  8.30925 0.455988 41.3344
RightForeArm  10.686 10.7397 4.85752
RightHand  -0.019592 3.02943 -0.508595
LeftUpLeg  1.09432 5.24118 5.63717
LeftLeg  47.9175 -8.37668 -9.37237
LeftFoot  5.73538 1.91827 -13.0775
LeftToes  -1.20963e-009 8.6283e-011 2.04439e-011
1637
root  59.5773 38.2408 -0.653435 179.883 32.6321 -176.647
RightUpLeg  -14.2792 -6.75099 2.59902
RightLeg  18.1566 2.62384 2.3986
RightFoot  -1.54712 0.220203 -2.68454
RightToes  5.82063e-011 0 -3.6325e-017
Spine  3.83588 -3.18164 11.5781
Spine1  9.79239 -2.68987 2.29386
HEad  -27.6512 -22.9014 10.086
LeftShoulder1  0.282234 2.76638 -32.1788
LeftArm  -4.08653 2.35068 -40.2235
LeftForeArm  27.0851 -5.47521 -8.69977
LeftHand  -0.136154 9.1479 -2.60983
RightShoulder  -0.790165 -5.66784 29.875
RightArm  9.63376 2.86088 41.7208
RightForeArm  11.3393 10.2139 5.39165
RightHand  0.00322239 2.57465 -0.15799
LeftUpLeg  -2.41462 5.41231 6.58437
LeftLeg  52.5918 -5.48646 -7.21303
LeftFoot  6.23854 1.64651 -10.839
LeftToes  -1.20963e-009 8.6283e-011 2.04439e-011
1638
root  60.109 38.3828 -1.15501 179.02 30.897 -177.609
RightUpLeg  -12.5673 -7.32942 1.7676
RightLeg  18.1632 1.62557 1.90505
RightFoot  -2.75293 0.188641 -2.76044
RightToes  5.82063e-011 0 -3.6325e-017
Spine  4.26174 -3.01764 11.8439
Spine1  9.8828 -2.1506 1.01185
HEad  -28.4745 -24.4491 11.7372
LeftShoulder1  0.304237 2.70374 -31.9249
LeftArm  -3.48566 4.45843 -39.3787
LeftForeArm  23.0349 -8.40167 -8.5632
LeftHand  -0.117659 9.87162 -1.42858
RightShoulder  -0.771202 -5.61513 29.8758
RightArm  10.1508 4.94454 42.495
RightForeArm  12.2236 9.89707 5.66292
RightHand  -0.0330825 2.523 -0.688543
LeftUpLeg  -5.73576 5.26133 6.14058
LeftLeg  54.5791 -3.04594 -4.14555
LeftFoot  4.35636 1.19727 -8.86947
LeftToes  -1.20963e-009 8.6283e-011 2.04439e-011
1639
root  60.6025 38.5388 -1.68979 178.342 28.8269 -178.551
RightUpLeg  -10.8605 -8.21086 0.704051
RightLeg  17.9988 0.540834 1.67109
RightFoot  -3.88532 0.153127 -2.74624
RightToes  5.82063e-011 0 -3.6325e-017
Spine  4.25117 -2.81996 11.8543
Spine1  10.0407 -1.812 0.240888
HEad  -28.2499 -26.325 12.2763
LeftShoulder1  0.309961 2.69354 -32.1438
LeftArm  -2.83728 5.72963 -38.887
LeftForeArm  18.3507 -10.4019 -8.09406
LeftHand  -0.0287592 8.51361 0.535946
RightShoulder  -0.779397 -5.66309 29.4513
RightArm  9.44004 6.43952 43.0741
RightForeArm  13.4236 10.3266 5.37929
RightHand  -0.0152825 2.42034 -0.422171
LeftUpLeg  -8.86648 4.94918 5.3242
LeftLeg  54.2454 -1.29961 -1.47904
LeftFoot  2.9088 0.783864 -6.39005
LeftToes  -1.20963e-009 8.6283e-011 2.04439e-011
1640
root  61.0387 38.6576 -2.20658 178.227 26.9217 -179.386
RightUpLeg  -9.70322 -8.86746 -0.251194
RightLeg  17.7485 -0.542987 1.45096
RightFoot  -4.97976 0.101319 -2.43135
RightToes  5.82063e-011 0 -3.6325e-017
Spine  4.24097 -2.54758 11.7518
Spine1  9.34721 -1.57108 -0.0981373
HEad  -26.9802 -27.8264 11.3056
LeftShoulder1  0.330336 2.64559 -32.4013
LeftArm  -1.93848 7.29231 -38.5755
LeftForeArm  15.8751 -12.5621 -7.44397
LeftHand  -0.0354478 8.2428 0.360862
RightShoulder  -0.750641 -5.63804 28.5271
RightArm  10.2308 7.92744 43.2678
RightForeArm  12.445 10.4018 5.61666
RightHand  0.0478491 2.57725 0.491308
LeftUpLeg  -12.0657 5.1089 4.27001
LeftLeg  51.9343 -0.479226 -0.201611
LeftFoot  0.970516 0.420409 -3.98892
LeftToes  -1.20963e-009 8.6283e-011 2.04439e-011
1641
root  61.4224 38.7729 -2.73794 178.132 25.6359 179.715
RightUpLeg  -8.69827 -9.6291 -1.33177
RightLeg  17.6056 -0.822548 1.55744
RightFoot  -5.83183 0.0673347 -2.21873
RightToes  5.82063e-011 0 -3.6325e-017
Spine  4.24437 -2.05318 11.8103
Spine1  8.70106 -1.03117 -0.783525
HEad  -25.8928 -29.5332 10.5444
LeftShoulder1  0.2134 2.95619 -32.8981
LeftArm  -0.833032 8.0219 -38.1843
LeftForeArm  14.8353 -14.2712 -6.8932
LeftHand  -0.0288362 8.01786 0.652317
RightShoulder  -0.742127 -5.63668 28.1469
RightArm  10.6216 8.65545 43.0203
RightForeArm  10.5815 11.6991 5.50395
RightHand  0.0268795 2.80489 0.168712
LeftUpLeg  -14.3637 6.13061 2.93793
LeftLeg  47.2685 -0.511082 -0.175323
LeftFoot  -1.85447 0.354029 -4.13494
LeftToes  -1.20963e-009 8.6283e-011 2.04439e-011
